# xmcd
#
# Track frame offsets:
#	150
#	12321
#	25049
#	34380
#	41611
#	51820
#	73370
#	81299
#	91635
#	102125
#	117028
#	130346
#	142071
#	147203
#
# Disc length: 2157 seconds
# Revision: 0
# Processed by: cddbd v1.5.2PL0 Copyright (c) Steve Scherf et al.
# Submitted via: dBpowerAMP V12.0
#
DISCID=bf086b0e
DTITLE=Rob McNurlin - The Gospel Guitar
DYEAR=2016
DGENRE=Country
TTITLE0=Holy Ghost
TTITLE1=Anyhow
TTITLE2=It was Jesus
TTITLE3=Hold My Hand
TTITLE4=Don't You Want to Go
TTITLE5=Saving Grace
TTITLE6=Got Enough Jesus
TTITLE7=The Rapture
TTITLE8=Honey in the Rock
TTITLE9=The Roman Road
TTITLE10=Talkin' Gospel Guitar (ft. Chance Martin)
TTITLE11=Jesus Christ
TTITLE12=Prayer
TTITLE13=On The Rock And Roll (Live) (ft. Marty Stuart)
EXTD=
EXTT0=
EXTT1=
EXTT2=
EXTT3=
EXTT4=
EXTT5=
EXTT6=
EXTT7=
EXTT8=
EXTT9=
EXTT10=
EXTT11=
EXTT12=
EXTT13=
PLAYORDER=
